<svg width="1440" height="85" viewBox="0 0 1440 85" fill="none" xmlns="http://www.w3.org/2000/svg">
<path d="M0 0H1440V85H0V0Z" fill="black"/>
<g clip-path="url(#clip0_1_1880)">
<path d="M1405.61 55.7513H1397.41V59.8638H1409.71V47.5069H1405.61V55.7513Z" fill="#B3B3B3"/>
<path d="M1379.1 47.5069H1375V59.8638H1387.3V55.7513H1379.1V47.5069Z" fill="#B3B3B3"/>
<path d="M1375 37.3569H1379.1V29.1222H1387.3V25H1375V37.3569Z" fill="#B3B3B3"/>
<path d="M1397.41 25V29.1222H1405.61V37.3569H1409.71V25H1397.41Z" fill="#B3B3B3"/>
</g>
<path d="M1237 39H1325V47H1237V39Z" fill="#C4C4C4"/>
<path d="M1170 39H1237V47H1170V39Z" fill="#710707"/>
<rect x="1230" y="35" width="15" height="15" rx="7.5" fill="white"/>
<path d="M600 39H1032V47H600V39Z" fill="#C4C4C4"/>
<path d="M103 39H600V47H103V39Z" fill="#710707"/>
<rect x="594" y="35" width="15" height="15" rx="7.5" fill="white"/>
<g clip-path="url(#clip1_1_1880)">
<path d="M53 42.5053L30 27C30 50.3683 30 38.8996 30 58L53 42.5053Z" fill="#B3B3B3"/>
</g>
<g clip-path="url(#clip2_1_1880)">
<path d="M1101.35 27C1100.88 27 1100.46 27.1616 1100.11 27.4848L1090.96 35.9737H1083.76C1083.28 35.9737 1082.87 36.1353 1082.52 36.4585C1082.17 36.7817 1082 37.1645 1082 37.6061V47.3939C1082 47.8355 1082.17 48.2183 1082.52 48.5415C1082.87 48.8647 1083.28 49.0263 1083.76 49.0263H1090.96L1100.11 57.5152C1100.46 57.8384 1100.87 58 1101.35 58C1101.83 58 1102.24 57.8384 1102.59 57.5152C1102.94 57.1921 1103.11 56.8102 1103.11 56.3677V28.6323C1103.11 28.1908 1102.94 27.8079 1102.59 27.4848C1102.24 27.1616 1101.83 27 1101.35 27H1101.35Z" fill="#B3B3B3"/>
<path d="M1111.6 46.1322C1112.34 45.0151 1112.71 43.8082 1112.71 42.5103C1112.71 41.2125 1112.34 40.0014 1111.6 38.8751C1110.86 37.7487 1109.88 36.9551 1108.66 36.4943C1108.48 36.4095 1108.26 36.3661 1108 36.3661C1107.55 36.3661 1107.16 36.5242 1106.83 36.8394C1106.49 37.1566 1106.33 37.5431 1106.33 38.004C1106.33 38.3625 1106.43 38.6653 1106.64 38.9123C1106.85 39.1592 1107.1 39.3731 1107.4 39.5519C1107.7 39.7307 1107.99 39.927 1108.29 40.1409C1108.59 40.3548 1108.84 40.6565 1109.05 41.0492C1109.26 41.4419 1109.36 41.9286 1109.36 42.5083C1109.36 43.088 1109.26 43.5747 1109.05 43.9673C1108.84 44.36 1108.59 44.6628 1108.29 44.8756C1107.99 45.0885 1107.7 45.2859 1107.4 45.4646C1107.1 45.6434 1106.85 45.8573 1106.64 46.1043C1106.43 46.3512 1106.33 46.655 1106.33 47.0126C1106.33 47.4734 1106.5 47.8609 1106.83 48.1771C1107.16 48.4913 1107.55 48.6514 1108 48.6514C1108.26 48.6514 1108.48 48.6091 1108.66 48.5233C1109.88 48.0449 1110.86 47.2471 1111.6 46.1291V46.1322Z" fill="#B3B3B3"/>
<path d="M1117.76 49.8582C1119.25 47.6112 1120 45.1571 1120 42.499C1120 39.8419 1119.25 37.3899 1117.76 35.1397C1116.26 32.8927 1114.28 31.2545 1111.82 30.2304C1111.59 30.1442 1111.36 30.1 1111.13 30.1C1110.68 30.1 1110.28 30.2651 1109.95 30.5952C1109.61 30.9254 1109.44 31.3155 1109.44 31.7676C1109.44 32.4448 1109.79 32.9569 1110.47 33.3049C1111.46 33.8085 1112.13 34.1902 1112.48 34.451C1113.78 35.3889 1114.8 36.5645 1115.53 37.9797C1116.26 39.395 1116.62 40.9007 1116.62 42.5C1116.62 44.0972 1116.26 45.6039 1115.53 47.0203C1114.8 48.4356 1113.78 49.6111 1112.48 50.549C1112.13 50.8098 1111.46 51.1915 1110.47 51.6951C1109.79 52.0432 1109.44 52.5542 1109.44 53.2324C1109.44 53.6835 1109.61 54.0746 1109.95 54.4048C1110.28 54.7349 1110.68 54.9 1111.16 54.9C1111.37 54.9 1111.59 54.8558 1111.82 54.7696C1114.28 53.7444 1116.26 52.1084 1117.76 49.8593L1117.76 49.8582Z" fill="#B3B3B3"/>
</g>
<defs>
<clipPath id="clip0_1_1880">
<rect width="35" height="35" fill="white" transform="translate(1375 25)"/>
</clipPath>
<clipPath id="clip1_1_1880">
<rect width="23" height="31" fill="white" transform="translate(30 27)"/>
</clipPath>
<clipPath id="clip2_1_1880">
<rect width="38" height="31" fill="white" transform="translate(1082 27)"/>
</clipPath>
</defs>
</svg>
