<svg width="20" height="20" viewBox="0 0 20 20" fill="none" xmlns="http://www.w3.org/2000/svg">
<path d="M11.0202 0C12.8202 0 13.2002 0.0199999 14.1202 0.0599999C15.1802 0.11 15.9102 0.28 16.5402 0.53C17.2002 0.78 17.7602 1.13 18.3102 1.68C18.8702 2.23 19.2102 2.79 19.4702 3.45C19.7202 4.08 19.8802 4.81 19.9302 5.88C19.9802 6.83 19.9902 7.2 19.9902 9.2V10.8C19.9902 12.8 19.9802 13.17 19.9302 14.12C19.9144 14.9468 19.7589 15.7651 19.4702 16.54C19.2102 17.2 18.8702 17.76 18.3202 18.31C17.7602 18.87 17.2002 19.21 16.5402 19.47C15.9102 19.72 15.1802 19.88 14.1202 19.93C13.1702 19.98 12.7902 19.99 10.7902 19.99H9.20015C7.20015 19.99 6.83015 19.98 5.87015 19.93C5.04333 19.9141 4.22515 19.7586 3.45015 19.47C2.78376 19.2195 2.17981 18.8271 1.68015 18.32C1.16796 17.8186 0.771985 17.211 0.520153 16.54C0.231773 15.765 0.0762563 14.9468 0.0601533 14.12C0.0111304 13.0874 -0.00887746 12.0537 0.000153349 11.02V8.97C0.000153349 7.17 0.0201533 6.79 0.0601533 5.87C0.110153 4.81 0.280153 4.08 0.520153 3.45C0.780153 2.79 1.12015 2.23 1.68015 1.68C2.17533 1.16743 2.78059 0.774176 3.45015 0.53C4.22461 0.238206 5.04278 0.079305 5.87015 0.0599999C6.79015 0.0199999 7.17015 0 8.97015 0H11.0202ZM11.0402 1.8H8.95015C7.22015 1.8 6.85015 1.82 5.95015 1.86C4.98015 1.9 4.45015 2.06 4.10015 2.2C3.63015 2.38 3.30015 2.6 2.95015 2.95C2.60015 3.3 2.38015 3.63 2.20015 4.1C2.07015 4.45 1.90015 4.98 1.86015 5.96C1.82015 6.86 1.80015 7.22 1.80015 8.96V11.04C1.80015 12.78 1.82015 13.14 1.86015 14.04C1.90015 15.01 2.06015 15.54 2.20015 15.89C2.38015 16.36 2.60015 16.69 2.95015 17.04C3.30015 17.39 3.63015 17.61 4.10015 17.79C4.45015 17.93 4.98015 18.09 5.96015 18.13C6.93015 18.18 7.28015 18.19 9.44015 18.19H10.5502C12.7202 18.19 13.0602 18.18 14.0402 18.13C15.0102 18.09 15.5402 17.93 15.8902 17.79C16.3602 17.61 16.6902 17.39 17.0402 17.04C17.3902 16.69 17.6102 16.36 17.7902 15.89C17.9302 15.54 18.0902 15.01 18.1302 14.04C18.1802 13.06 18.1902 12.72 18.1902 10.55V9.45C18.1902 7.28 18.1802 6.93 18.1302 5.95C18.0902 4.98 17.9302 4.45 17.7902 4.1C17.6292 3.66543 17.373 3.27246 17.0402 2.95C16.7179 2.61692 16.3249 2.3606 15.8902 2.2C15.2971 1.98317 14.6716 1.86822 14.0402 1.86C13.0409 1.81227 12.0405 1.79226 11.0402 1.8ZM10.0002 4.86C11.362 4.86 12.6681 5.40101 13.6311 6.36401C14.5941 7.32701 15.1352 8.63311 15.1352 9.995C15.1352 11.3569 14.5941 12.663 13.6311 13.626C12.6681 14.589 11.362 15.13 10.0002 15.13C8.63827 15.13 7.33216 14.589 6.36916 13.626C5.40616 12.663 4.86515 11.3569 4.86515 9.995C4.86515 8.63311 5.40616 7.32701 6.36916 6.36401C7.33216 5.40101 8.63827 4.86 10.0002 4.86ZM10.0002 6.66C9.11566 6.66 8.26739 7.01137 7.64195 7.6368C7.01652 8.26223 6.66515 9.1105 6.66515 9.995C6.66515 10.8795 7.01652 11.7278 7.64195 12.3532C8.26739 12.9786 9.11566 13.33 10.0002 13.33C10.8847 13.33 11.7329 12.9786 12.3584 12.3532C12.9838 11.7278 13.3352 10.8795 13.3352 9.995C13.3352 9.1105 12.9838 8.26223 12.3584 7.6368C11.7329 7.01137 10.8847 6.66 10.0002 6.66ZM15.3302 3.46C15.6484 3.46 15.9536 3.58643 16.1787 3.81147C16.4037 4.03652 16.5302 4.34174 16.5302 4.66C16.5302 4.97826 16.4037 5.28348 16.1787 5.50853C15.9536 5.73357 15.6484 5.86 15.3302 5.86C15.0119 5.86 14.7067 5.73357 14.4816 5.50853C14.2566 5.28348 14.1302 4.97826 14.1302 4.66C14.1302 4.34174 14.2566 4.03652 14.4816 3.81147C14.7067 3.58643 15.0119 3.46 15.3302 3.46Z" fill="white"/>
</svg>
