<svg width="600" height="120" viewBox="0 0 600 120" fill="none" xmlns="http://www.w3.org/2000/svg">
<rect width="600" height="120" fill="#030303"/>
<path d="M85.1074 61.3291C85.1074 63.6566 84.71 65.3861 83.915 66.5176C83.1201 67.6491 81.8776 68.2148 80.1875 68.2148C78.5189 68.2148 77.2835 67.6634 76.4814 66.5605C75.6794 65.4505 75.264 63.7962 75.2354 61.5977V58.9443C75.2354 56.6455 75.6328 54.9375 76.4277 53.8203C77.2227 52.7031 78.4688 52.1445 80.166 52.1445C81.849 52.1445 83.0879 52.6852 83.8828 53.7666C84.6777 54.8408 85.0859 56.5023 85.1074 58.751V61.3291ZM83.1201 58.6113C83.1201 56.9284 82.8838 55.7038 82.4111 54.9375C81.9385 54.1641 81.1901 53.7773 80.166 53.7773C79.1491 53.7773 78.4079 54.1605 77.9424 54.9268C77.4769 55.693 77.237 56.8711 77.2227 58.4609V61.6406C77.2227 63.3307 77.4661 64.5804 77.9531 65.3896C78.4473 66.1917 79.1921 66.5928 80.1875 66.5928C81.1686 66.5928 81.8955 66.2132 82.3682 65.4541C82.848 64.695 83.0986 63.499 83.1201 61.8662V58.6113ZM94.1846 68H92.1865V54.7549L88.1797 56.2266V54.4219L93.873 52.2842H94.1846V68Z" fill="white"/>
<path d="M112.48 70.9004H110.88V52.3594H112.48V70.9004Z" fill="white"/>
<path d="M136.107 61.3291C136.107 63.6566 135.71 65.3861 134.915 66.5176C134.12 67.6491 132.878 68.2148 131.188 68.2148C129.519 68.2148 128.284 67.6634 127.481 66.5605C126.679 65.4505 126.264 63.7962 126.235 61.5977V58.9443C126.235 56.6455 126.633 54.9375 127.428 53.8203C128.223 52.7031 129.469 52.1445 131.166 52.1445C132.849 52.1445 134.088 52.6852 134.883 53.7666C135.678 54.8408 136.086 56.5023 136.107 58.751V61.3291ZM134.12 58.6113C134.12 56.9284 133.884 55.7038 133.411 54.9375C132.938 54.1641 132.19 53.7773 131.166 53.7773C130.149 53.7773 129.408 54.1605 128.942 54.9268C128.477 55.693 128.237 56.8711 128.223 58.4609V61.6406C128.223 63.3307 128.466 64.5804 128.953 65.3896C129.447 66.1917 130.192 66.5928 131.188 66.5928C132.169 66.5928 132.896 66.2132 133.368 65.4541C133.848 64.695 134.099 63.499 134.12 61.8662V58.6113ZM139.566 60.1582L140.361 52.3594H148.375V54.1963H142.048L141.575 58.4609C142.341 58.0098 143.212 57.7842 144.186 57.7842C145.611 57.7842 146.742 58.2568 147.58 59.2021C148.418 60.1403 148.837 61.4115 148.837 63.0156C148.837 64.627 148.4 65.8981 147.526 66.8291C146.66 67.7529 145.446 68.2148 143.885 68.2148C142.503 68.2148 141.375 67.8317 140.501 67.0654C139.627 66.2992 139.13 65.2393 139.008 63.8857H140.888C141.009 64.7809 141.328 65.4577 141.844 65.916C142.359 66.3672 143.04 66.5928 143.885 66.5928C144.809 66.5928 145.532 66.2777 146.055 65.6475C146.585 65.0173 146.85 64.1471 146.85 63.0371C146.85 61.9915 146.563 61.1536 145.99 60.5234C145.424 59.8861 144.669 59.5674 143.724 59.5674C142.857 59.5674 142.177 59.7572 141.683 60.1367L141.156 60.5664L139.566 60.1582Z" fill="white"/>
<rect x="205" y="52" width="16" height="16" fill="#D2B183"/>
<rect x="246" y="52" width="16" height="16" fill="white"/>
<rect x="287" y="52" width="16" height="16" fill="white"/>
<rect x="328" y="52" width="16" height="16" fill="white"/>
<rect x="369" y="52" width="16" height="16" fill="white"/>
<path d="M519.277 56C521.098 57.6866 523.006 58.9174 525 59.6923L525 60.3077C523.006 61.1054 521.098 62.3362 519.277 64L517.76 64C518.627 62.5641 519.465 61.4701 520.275 60.7179L495 60.7179L495 59.2821L520.275 59.2821C519.465 58.5299 518.627 57.4359 517.76 56L519.277 56Z" fill="white"/>
<path d="M450.723 64C448.902 62.3134 446.994 61.0826 445 60.3077V59.6923C446.994 58.8946 448.902 57.6638 450.723 56H452.24C451.373 57.4359 450.535 58.5299 449.725 59.2821H475V60.7179H449.725C450.535 61.4701 451.373 62.5641 452.24 64H450.723Z" fill="white"/>
</svg>
